<?xml version="1.0" encoding="utf-8" ?><svg xmlns="http://www.w3.org/2000/svg" xmlns:xlink="http://www.w3.org/1999/xlink" width="1024" height="1024" viewBox="0 0 1024 1024"><path fill="#F2F0EB" d="M0 0L1024 0L1024 1024L0 1024L0 0Z"/><path fill="#364F3A" d="M862.691 210.882C857.111 216.736 839.376 235.479 832.301 236.63C829.026 235.556 829.104 231.625 830.844 229.261C852.589 199.706 868.549 166.304 877.394 130.658C878.479 126.285 880.436 111.378 883.276 109.263C885.207 109.187 884.368 108.922 885.896 110.041C887.088 112.419 890.818 133.548 892.3 139.106C899.251 165.175 910.802 190.217 925.853 212.619C928.193 216.101 929.459 218.937 928.444 222.086C925.703 225.066 921.93 221.628 919.482 219.549C911.741 212.974 904.597 205.365 897.856 197.817C906.453 224.483 920.674 246.575 937.241 268.805C939.852 272.309 949.595 283.88 944.135 287.452C939.136 287.6 916.537 265.704 910.665 260.791C924.437 299.394 944.832 330.845 968.004 364.196C969.621 366.523 970.472 369.916 969.521 372.681C968.597 373.535 968.232 373.914 966.852 373.783C961.844 373.306 930.883 340.512 923.559 334.762C937.148 370.907 955.054 402.019 977.176 433.498C979.555 436.883 988.388 448.762 981.536 451.238C974.548 450.447 954.767 434.161 947.547 429.12C951.464 438.693 963.708 473.214 968.982 478.905C974.699 485.074 983.299 490.195 990.129 495.213C990.759 504.955 990.262 517.826 990.235 527.929L990.302 583.57L990.319 659.798C990.351 673.805 990.445 687.821 990.398 701.829C990.36 712.839 983.151 706.418 979.024 708.541C975.981 712.573 982.956 744.533 973.924 758.513C977.068 758.516 1000.84 755.806 993.586 764.837C990.128 766.421 985.163 767.201 981.386 768.312C970.074 771.639 958.548 773.83 947.133 776.627C924.788 782.102 902.326 787.496 880.015 793.1C808.401 811.055 737.213 830.671 666.509 851.93C598.145 872.638 530.11 894.417 462.43 917.259C430.418 927.895 398.508 939.406 366.583 950.234C359.479 952.608 352.393 955.036 345.325 957.516C341.815 958.741 333.219 961.94 330.06 962.339C323.755 963.137 315.038 962.59 308.437 962.821C457.806 909.375 608.888 860.839 761.437 817.29C811.563 803.571 861.818 790.333 912.197 777.576C924.483 774.416 936.986 771.711 949.31 768.7C955.161 767.271 962.036 766.001 967.675 764.241C963.177 764.133 958.779 764.634 954.302 765.043C955.558 763.998 955.744 764.06 957.37 763.935C958.196 762.774 958.07 763.407 958.007 762.07C956.796 761.476 953.474 762.095 952.291 762.667L951.918 761.42C943.509 761.848 932.162 764.142 923.008 764.841C921.937 764.016 919.695 763.935 918.225 763.75C914.579 763.447 908.701 760.778 907.203 760.942C878.037 764.128 848.628 767.805 819.43 770.869C803.219 772.57 787.171 776.393 770.994 778.422C724.468 785.693 676.93 792.238 630.719 801.033C586.958 809.362 542.91 820.463 499.442 830.44C411.933 850.234 324.868 871.936 238.307 895.531C168.774 914.658 99.4578 934.562 30.3702 955.239L30.4372 898.116C96.3721 881.81 162.426 865.988 228.593 850.652C244.64 846.964 260.709 843.372 276.798 839.875C298.317 835.193 312.895 831.616 334.875 831.222C327.644 827.848 319.968 824.664 312.615 821.5C304.627 823.854 294.408 825.444 286.147 827.302C272.206 830.437 258.27 833.6 244.333 836.759C194.638 847.978 145.083 859.807 95.6794 872.243C75.6731 877.325 49.436 883.213 30.369 889.312C30.3082 874.199 30.3259 859.086 30.422 843.973C47.6208 838.773 63.1862 834.567 80.8478 831.012C64.1804 812.652 60.6013 795.98 53.4191 773.489C52.1861 769.628 45.0741 763.336 42.7682 759.679C32.42 748.543 26.8423 725.379 27.8991 710.632C29.1929 692.578 33.3394 669.417 38.7522 651.89C39.9856 647.896 40.4108 644.501 41.9283 640.111C48.9439 619.818 58.8705 599.025 65.3348 578.738C60.1377 583.938 39.0463 606.749 33.164 607.297C31.3574 606.167 31.9774 606.904 31.0691 605.163C31.1745 599.143 44.2979 571.379 47.374 564.142C57.1904 541.373 66.1535 518.246 74.2445 494.808C70.6698 497.742 25.9115 538.088 41.8537 507.955C45.3298 501.384 51.5917 492.955 55.4498 486.153C66.2474 467.118 79.3104 445.474 86.7429 425.095C80.3647 430.214 73.9203 435.395 67.3653 440.285C64.7134 442.263 61.2832 445.309 58.7331 442.413C57.085 436.738 63.8 430.041 67.0534 425.54C79.3365 408.549 88.1173 391.34 96.0536 371.903C92.3503 375.524 75.4362 391.383 70.2317 387.721C69.7551 385.719 69.9642 385.183 71.1102 383.412C74.9323 377.505 80.7378 371.619 84.7429 365.964C99.3925 345.281 110.2 322.13 115.041 297.177C115.248 296.11 115.93 294.901 116.772 294.132C118.827 294.07 118.015 293.737 119.419 294.774C120.88 297.889 121.145 302.388 121.967 305.847C127.107 327.492 135.556 348.89 148.433 367.129C152 372.181 156.13 377.08 159.491 382.285C159.336 382.813 159.181 383.342 159.026 383.871C154.362 387.995 139.846 373.59 136.046 369.982C142.341 385.32 149.853 400.13 158.51 414.27C162.035 420.059 165.524 425.564 169.457 431.093C171.219 433.57 170.834 435.49 168.72 437.378C164.638 438.343 152.699 430.084 147.851 427.618C154.569 446.197 165.159 466.626 177.322 482.265C180.116 485.858 186.304 492.247 185.63 496.643C184.982 497.511 184.922 498.011 184.072 498.04C179.802 498.188 171.606 493.12 167.624 491.154C172.477 502.734 180.093 518.432 188.966 527.298C192.805 526.186 196.01 525.245 199.739 523.838C196.654 521.395 195.442 520.364 195.191 516.296C194.459 504.454 194.584 492.354 194.516 480.473C194.464 471.356 194.355 461.968 194.653 452.884C194.711 451.128 195.895 445.822 197.051 444.894C201.733 441.134 219.762 442.372 225.936 442.411C230.242 434.734 235.923 427.559 242.622 421.822C249.948 415.549 259.635 413.615 268.792 411.522C268.37 407.538 268.317 407.727 269.216 404.026C270.771 397.624 270.168 390.044 270.59 383.362C271.473 370.842 270.803 359.788 268.433 347.563C267.186 341.13 262.546 328.023 263.008 322.517C263.899 311.909 275.377 307.208 280.568 319.942C286.564 334.651 290.639 348.329 291.75 364.304C292.481 374.487 291.915 384.735 291.726 394.908C291.707 395.882 292.315 396.359 292.91 396.974C294.579 396.928 293.908 397.224 295.067 396.264C298.898 385.933 299.537 375.367 304.273 364.392C311.284 348.143 319.86 334.666 331.631 321.433C334.608 317.942 340.622 312.476 342.963 309.306C343.073 296.755 343.444 282.062 342.981 269.622C367.791 267.282 394.236 263.52 419.045 260.515L553.658 244.494L596.173 239.541C606.185 238.308 617.586 236.588 627.565 235.955C643.155 247.502 662.053 259.944 678.183 271.069L765.878 332.581C778.935 341.844 793.126 351.32 805.863 360.846C820.067 339.97 832.102 317.698 841.778 294.376C836.374 298.149 815.079 315.585 811.434 316.295C809.627 315.505 810.303 316.121 809.361 314.355C809.034 307.069 822.882 290.307 827.369 283.206C841.287 261.179 856.307 236.39 862.691 210.882Z"/><path fill="#C1D7BF" d="M918.225 763.75C925.451 763.618 932.272 761.895 939.528 761.751C943.76 761.668 948.258 760.97 952.569 760.744L951.918 761.42C943.509 761.848 932.162 764.142 923.008 764.841C921.937 764.016 919.695 763.935 918.225 763.75Z"/><path fill="#F2F0EB" d="M458.943 425.072C458.82 447.552 452.886 472.424 451.361 495.145C451.083 499.289 449.143 509.373 444.165 510.43C388.305 522.298 330.389 529.996 277.447 552.705C272.946 554.636 268.022 556.558 263.975 559.264L264.146 559.705C270.367 559.089 288.278 551.951 295.497 549.872C307.083 546.534 318.809 543.043 330.541 539.98C354.273 533.784 378.314 528.48 402.346 523.577C415.967 520.797 429.96 518.779 443.539 515.769C446.498 515.113 447.652 514.607 449.955 512.684C454.718 504.953 455.263 496.606 456.21 487.636C456.674 488.838 456.957 489.39 457.149 490.667C453.748 537.27 455.952 586.775 455.189 633.441C454.362 632.692 450.853 629.617 450.36 628.957L445.062 624.351L445.182 555.121C445.194 548.057 445.719 528.822 444.988 523.199C443.884 522.357 443.725 522.74 441.839 522.946L441.671 527.288L441.345 621.83L436.61 618.763C428.826 616.047 420.339 611.792 412.603 609.87C381.527 602.15 339.68 599.936 310.685 614.371C277.166 631.059 264.353 657.16 250.789 689.107C247.48 697.307 245.671 706.427 242.553 713.951L241.938 714.028C240.769 711.733 245.321 685.535 246.043 680.654C249.581 657.52 252.822 634.341 255.764 611.123C257.166 600.723 258.732 590.341 260.032 579.95C261.117 571.28 257.849 561.871 248.36 559.958C229.43 556.143 208.871 554.837 189.586 554.263C199.984 546.666 217.947 539.679 229.986 534.885C236.048 532.471 243.604 530.382 249.095 526.996C233.074 531.55 218.987 535.981 203.607 542.641C195.929 545.705 189.103 550.706 181.562 553.857C177.918 554.957 173.31 554.831 169.591 555.04C154.432 555.893 139.545 559.08 124.5 561.017C140.249 550.43 161.644 543.783 179.189 537.285C226.411 519.798 274.875 508.515 324.912 503.11C335.761 501.938 349.049 502.2 360.092 502.246L402.753 502.57C410.452 502.657 430.729 504.132 437.657 500.295C443.701 496.948 444.279 482.975 445.034 476.08C446.061 467.098 446.988 458.104 447.816 449.102C449.085 434.529 447.773 434.727 458.943 425.072Z"/><path fill="#EB9050" d="M250.789 689.107C249.413 686.033 255.867 673.055 257.193 669.217C263.914 649.772 276.874 616.471 295.381 605.725C321.872 590.343 365.42 583.57 395.798 589.38C414.657 593.585 426.505 602.781 436.61 618.763C428.826 616.047 420.339 611.792 412.603 609.87C381.527 602.15 339.68 599.936 310.685 614.371C277.166 631.059 264.353 657.16 250.789 689.107Z"/><path fill="#EB9050" d="M261.106 634.361C262.315 625.703 264.376 617.112 265.873 608.49C267.647 598.266 268.932 587.492 271.573 577.471C272.372 574.439 273.517 570.744 275.423 568.228C285.368 555.098 418.022 526.82 441.839 522.946L441.671 527.288C433.179 528.869 423.925 531.426 415.475 533.586C404.889 536.251 394.322 538.995 383.776 541.818C349.805 551.247 296.849 567.152 277.787 598.496C272.925 605.838 269.62 613.681 266.354 621.794C264.92 625.354 262.97 631.279 261.106 634.361Z"/><path fill="#EB9050" d="M456.21 487.636C456.674 488.838 456.957 489.39 457.149 490.667C453.748 537.27 455.952 586.775 455.189 633.441C454.362 632.692 450.853 629.617 450.36 628.957C450.406 627.94 450.432 628.538 450.287 627.618C449.13 620.31 450.035 612.137 449.99 604.754C449.901 590.237 450.216 574.58 450.182 560.208C450.158 549.878 451.715 521.259 449.955 512.684C454.718 504.953 455.263 496.606 456.21 487.636Z"/><path fill="#364F3A" d="M416.4 551.706C418.39 551.498 422.341 550.876 424.023 551.786C429.45 554.722 427.557 563.947 425.04 568.096C421.936 569.732 408.287 570.421 403.566 570.862C400.102 571.304 396.967 572.105 393.792 570.808C392.526 569.69 392.261 568.629 392.091 567.084C390.626 553.739 393.822 553.962 405.477 552.854C408.878 552.53 413.184 552.038 416.4 551.706Z"/><path fill="#F2F0EB" d="M383.052 296.041L510.502 289.815C528.765 288.934 554.056 286.791 571.564 286.975C563.861 294.784 558.397 305.522 555.309 316.012C554.134 320.003 553.447 324.656 552.262 328.664C552.049 354.356 552.572 380.808 552.017 406.343C542.813 396.756 526.269 395.373 513.483 393.623C490.784 390.477 467.922 388.639 445.012 388.118C424.046 387.701 402.734 388.429 381.776 389.086C355.592 389.907 330.257 390.209 304.666 396.365C303.353 396.629 302.613 396.908 301.32 396.551C300.918 394.79 302.858 389.377 303.33 387.389C307.515 369.724 315.778 352.894 326.185 338.057C335.672 324.531 357.937 299.716 374.427 296.797C375.52 296.474 381.543 296.146 383.052 296.041Z"/><path fill="#EB9050" d="M374.427 296.797C375.52 296.474 381.543 296.146 383.052 296.041C377.024 301.838 370.791 307.543 365.288 313.847C357.61 322.643 333.356 354.21 333.527 364.792C333.556 366.58 333.923 368.126 335.349 369.326C336.945 370.669 343.364 370.426 345.505 370.436C356.47 370.49 367.48 370.005 378.447 369.821L445.38 369.084L493.895 368.983C501.958 368.966 515.423 369.492 522.636 367.944C530.119 366.337 539.266 353.634 542.196 347.11C544.311 342.401 550.428 332.935 552.262 328.664C552.049 354.356 552.572 380.808 552.017 406.343C542.813 396.756 526.269 395.373 513.483 393.623C490.784 390.477 467.922 388.639 445.012 388.118C424.046 387.701 402.734 388.429 381.776 389.086C355.592 389.907 330.257 390.209 304.666 396.365C303.353 396.629 302.613 396.908 301.32 396.551C300.918 394.79 302.858 389.377 303.33 387.389C307.515 369.724 315.778 352.894 326.185 338.057C335.672 324.531 357.937 299.716 374.427 296.797Z"/><path fill="#F2F0EB" d="M304.666 396.365C303.353 396.629 302.613 396.908 301.32 396.551C300.918 394.79 302.858 389.377 303.33 387.389C307.515 369.724 315.778 352.894 326.185 338.057C335.672 324.531 357.937 299.716 374.427 296.797C351.079 316.568 331.429 338.878 315.448 365.278C309.41 375.252 307.045 385.092 304.666 396.365Z"/><path fill="#F2F0EB" d="M185.73 559.357C195.252 559.261 204.774 559.587 214.268 560.335C221.57 560.873 229.823 561.754 236.843 562.557C256.4 564.796 256.016 571.747 253.315 589.005C252.422 594.714 251.352 602.268 250.592 608.24C247.757 629.609 244.782 650.959 241.669 672.289C239.646 685.956 237.135 700.467 235.806 714.184C223.347 714.686 209.777 714.372 197.25 714.299C168.964 713.974 140.675 714.045 112.391 714.511C112.264 713.554 112.156 712.594 112.069 711.633C111.451 704.76 111.618 695.157 111.604 688.16C111.569 675.361 111.613 662.561 111.735 649.762C111.864 634.832 112.106 619.902 112.461 604.976C112.637 598.173 112.854 571.74 116.469 567.401C123.283 563.633 164.652 560.323 173.85 559.717C180.851 559.096 177.788 562.604 181.558 563.466C183.382 562.77 184.478 560.946 185.73 559.357Z"/><path fill="#364F3A" d="M173.988 700.603C175.793 688.485 176.311 671.534 177.399 659.015C179.044 640.094 180.592 620.828 182.432 601.925C183.007 596.01 184.298 575.276 185.809 571.16C191.26 566.77 224.253 571.032 232.249 570.947C235.618 570.912 241.023 572.18 243.765 574.313C246.075 578.511 241.656 601.854 240.735 608.118C239.656 618.026 228.567 697.385 226.87 700.52C225.615 702.808 223.516 704.514 221.021 705.275C212.571 707.857 173.006 706.049 161.475 706.486C151.987 706.424 142.419 706.845 132.942 706.514C129.208 706.384 122.415 704.737 121.847 700.278C119.636 682.929 120.38 664.615 120.458 647.074C120.513 632.879 120.71 618.685 121.049 604.494C121.175 598.716 120.947 578.38 123.591 575.853C129.448 570.256 163.032 569.482 169.78 569.223C172.009 569.202 173.533 568.993 175.597 569.833C175.855 570.162 176.113 570.491 176.371 570.82C174.761 605.466 168.899 668.338 166.53 700.769L173.988 700.603Z"/><path fill="#F2F0EB" d="M226.275 575.72C230.484 576.641 229.625 578.676 229.054 582.539C225.434 607.057 222.43 632.161 218.452 656.587C216.873 666.286 214.784 693.557 211.691 701.197C209.626 700.542 209.655 700.903 208.434 699.525C207.904 694.562 224.005 582.279 226.275 575.72Z"/><path fill="#F2F0EB" d="M201.731 574.363C203.096 574.466 203.989 574.374 205.082 575.17C206.237 578.874 193.685 690.832 191.8 700.69C190.242 700.716 189.887 700.828 188.399 700.33C187.428 698.632 190.909 672.477 191.303 668.944L197.06 618.003C198.816 603.436 199.946 588.949 201.731 574.363Z"/><path fill="#F2F0EB" d="M153.541 575.024C154.901 574.962 155.689 574.795 156.933 575.353C157.523 576.834 157.333 578.772 157.214 580.388C155.243 607.246 153.704 634.463 151.665 661.262C151.046 669.408 150.27 694.63 148.773 701.209C148.325 701.169 147.666 701.12 147.241 701.038C146.619 700.919 145.761 700.844 145.46 700.22C144.882 699.017 151.784 581.42 153.541 575.024Z"/><path fill="#F2F0EB" d="M130.737 576.889C132.291 576.867 132.467 576.845 133.975 577.145C135.455 579.537 132.113 651.078 132.409 659.434C132.565 663.83 131.987 695.866 131.143 700.605C129.954 700.101 127.821 698.756 127.814 697.508C127.609 659.439 129.278 620.907 129.703 582.752C129.728 580.46 130.091 578.578 130.737 576.889Z"/><path fill="#F2F0EB" d="M371.809 720.742L386.712 720.526C382.303 734.071 372.554 749.207 360.988 757.697C351.423 764.719 338.006 767.938 326.339 769.167C286.529 773.36 245.249 770.846 205.142 770.919C170.161 771.208 135.179 770.926 100.207 770.072C89.2995 769.781 68.6853 769.887 58.6118 768.274L55.9916 766.049C41.0821 749.679 38.4987 742.837 34.192 721.537C57.8553 720.987 80.9793 721.375 104.598 721.196L371.809 720.742Z"/><path fill="#364F3A" d="M149.497 732.539C156.815 732.435 200.301 731.902 204.802 733.807C206.559 736.467 206.189 744.151 203.963 746.672C196.84 746.932 151.794 747.83 148.957 745.786C147.035 742.557 147.157 735.504 149.497 732.539Z"/><path fill="#F2F0EB" d="M640.341 267.449C655.178 277.968 671.202 288.102 685.843 298.742C686.441 312.796 686.033 329.321 686.03 343.576L686.008 423.852L685.866 632.164C670.672 628.859 655.251 626.445 640.105 623.001L640.104 384.463L640.114 307.603C640.111 297.425 639.531 277.016 640.341 267.449Z"/><path fill="#F2F0EB" d="M690.819 301.887C705.886 312.381 724.204 324.241 738.458 335.201L738.414 527.857C738.456 565.139 739.093 604.738 738.124 641.838C722.955 639.386 705.736 635.802 690.573 632.802L690.571 425.289C690.552 384.988 689.825 342.011 690.819 301.887Z"/><path fill="#F2F0EB" d="M743.51 338.577C745.737 339.51 760.521 350.077 763.344 352.17C770.946 357.805 779.994 363.628 787.358 369.368C788.059 424.049 787.391 480.529 787.381 535.36L787.381 606.955C787.393 621.232 787.674 636.584 787.203 650.783C774.932 649.292 755.767 645.164 743.06 642.871C743.502 594.146 743.52 545.418 743.114 496.692L743.51 338.577Z"/><path fill="#F2F0EB" d="M792.614 372.786C794.711 373.891 805.508 381.487 807.732 383.163C815.058 388.685 826.292 395.64 832.939 401.531C833.314 431.174 832.848 461.956 832.799 491.673L832.644 658.948C830.445 660.208 797.189 653.009 792.399 652.053C791.843 614.311 792.445 574.879 792.471 537.027L792.614 372.786Z"/><path fill="#F2F0EB" d="M274.335 653.911C285.129 637.916 300.124 624.593 318.495 618.116C327.043 615.19 335.895 613.236 344.881 612.291C363.308 610.402 404.763 611.938 421.038 619.638C423.32 620.399 425.386 621.051 427.603 622.009C419.396 622.797 412.257 623.711 404.619 627.128C373.657 640.976 359.43 672.74 352.911 704C352.426 705.754 351.827 711.463 351.563 713.557L248.782 713.801C249.642 710.339 250.601 706.903 251.658 703.495C253.298 699.176 254.604 694.474 256.315 690.001C261.182 677.435 267.215 665.352 274.335 653.911Z"/><path fill="#EB9050" d="M274.335 653.911C285.129 637.916 300.124 624.593 318.495 618.116C327.043 615.19 335.895 613.236 344.881 612.291C363.308 610.402 404.763 611.938 421.038 619.638L420.084 619.712C417.278 619.906 413.182 619.706 410.083 619.793C400.64 620.048 391.198 620.373 381.759 620.769C358.002 622.161 334.383 625.343 311.104 630.289L311.976 630.401C322.68 631.737 370.199 632.399 375.82 635.116C376.547 638.837 367.617 650.331 365.248 653.708C334.945 654.014 304.64 654.081 274.335 653.911Z"/><path fill="#EB9050" d="M251.658 703.495C284.142 703.498 320.767 702.684 352.911 704C352.426 705.754 351.827 711.463 351.563 713.557L248.782 713.801C249.642 710.339 250.601 706.903 251.658 703.495Z"/><path fill="#364F3A" d="M281.677 658.646C304.723 657.92 328.383 658.78 351.464 658.649C362.744 658.584 349.033 681.71 345.453 684.522L301.833 684.52C295.606 684.54 274.248 685.886 270.876 681.806C269.37 675.436 276.03 661.98 281.677 658.646Z"/><path fill="#F2F0EB" d="M316.72 665.597C326.55 665.654 336.381 665.627 346.21 665.517C344.067 669.589 342.89 672.077 341.369 676.364C338.529 677.013 317.219 676.637 313.035 676.6C313.676 672.393 314.931 669.368 316.72 665.597Z"/><path fill="#F2F0EB" d="M299.23 665.749L308.103 665.886L303.891 676.516L288.212 676.566L278.149 676.69C279.552 673.235 280.886 669.425 282.195 665.908C287.814 665.779 293.597 665.796 299.23 665.749Z"/><path fill="#F2F0EB" d="M423.031 675.598C428.478 675.465 434.69 679.13 438.367 683.053C455.01 700.81 459.11 731.077 459.32 754.719C459.534 778.858 454.42 809.391 437.641 827.659C431.9 833.584 425.767 834.993 417.931 835.01C384.05 830.746 380.278 770.691 382.599 744.283C383.211 737.327 394.261 725.051 390.358 716.085L389.998 715.278C395.723 699.587 405.339 680 423.031 675.598Z"/><path fill="#364F3A" d="M427.856 712.538C458.114 713.508 463.078 787.043 431.477 799.701C401.474 802.417 395.225 722.142 427.856 712.538Z"/><path fill="#EB9050" d="M427.208 719.04C451.678 717.372 457.724 782.948 431.615 792.997C424.128 794.491 418.745 788.478 415.73 782.312C408.919 768.383 408.79 750.777 413.599 736.215C416.145 728.509 419.772 722.691 427.208 719.04Z"/><path fill="#364F3A" d="M414.333 762.81C413.963 756.954 414.104 753.606 415.037 747.844C417.093 735.143 427.548 728.887 437.415 739.159C448.328 750.521 446.414 784.128 425.401 781.895C422.139 781.548 419.521 780.122 419.6 776.505C418.281 776.047 418.445 775.507 417.554 773.773C415.216 769.5 414.897 767.464 414.333 762.81Z"/><path fill="#EB9050" d="M420.511 748.514C422.343 748.238 423.815 749.25 426.044 749.309C425.723 756.773 425.326 762.844 426.911 770.252C427.712 773.995 431.933 776.45 429.896 778.734C428.385 780.428 423.528 778.273 421.768 777.48C421.043 777.161 420.32 776.836 419.6 776.505C418.281 776.047 418.445 775.507 417.554 773.773C415.216 769.5 414.897 767.464 414.333 762.81C415.311 764.12 414.872 764.054 416.01 764.431C416.49 763.378 416.17 756.321 416.301 754.004L417.01 753.52C417.662 750.496 417.81 750.125 420.511 748.514Z"/><path fill="#364F3A" d="M414.333 762.81C415.311 764.12 414.872 764.054 416.01 764.431C416.49 763.378 416.17 756.321 416.301 754.004L417.01 753.52C417.022 757.108 416.705 763.95 418.636 766.721C419.804 767.257 419.819 767.271 421.08 767.499C420.693 769.481 418.551 770.654 417.554 773.773C415.216 769.5 414.897 767.464 414.333 762.81Z"/><defs><linearGradient id="gradient_0" gradientUnits="userSpaceOnUse" x1="420.30392" y1="747.23358" x2="428.18039" y2="736.98578"><stop offset="0" stop-color="#FE9C81"/><stop offset="1" stop-color="#EFB7A1"/></linearGradient></defs><path fill="url(#gradient_0)" d="M420.511 748.514L418.43 747.579C416.38 740.889 428.567 732.734 430.121 739.082C427.428 740.997 424.675 737.427 423.754 741.381C424.548 742.575 425.543 742.694 426.946 743.164C427.101 744.76 426.382 747.622 426.044 749.309C423.815 749.25 422.343 748.238 420.511 748.514Z"/><path fill="#EB9050" d="M433.552 740.304C437.085 740.769 439.403 745.962 439.983 749.09C441.765 758.698 441.259 767.5 435.693 775.82C429.163 778.238 425.173 748.163 433.552 740.304Z"/><path fill="#F2F0EB" d="M838.068 404.879C840.297 406.105 847.073 411.179 849.404 412.837C857.828 418.829 866.201 424.892 874.521 431.027L874.698 569.289C874.757 601.683 875.308 634.818 874.783 667.156C865.631 666.117 847.334 662.355 838.019 660.419L837.914 472.726C837.827 450.11 837.878 427.494 838.068 404.879Z"/><path fill="#EB9050" d="M585.763 285.749C589.024 285.561 592.288 285.418 595.553 285.32C599.126 285.239 603.166 285.04 605.816 287.587C606.852 291.185 606.49 311.277 606.484 316.007L606.158 383.5L605.769 621.792C601.213 622.064 596.662 622.428 592.119 622.883C591.646 622.934 588.496 623.364 588.415 622.669C587.684 616.432 588.048 609.435 588.072 603.102L588.01 494.748L588.088 462.314C588.119 456.209 589.305 444.18 586.07 438.974C584.551 436.529 580.615 435.684 577.849 435.282L577.837 367.584C577.804 355.209 577.441 342.395 578.223 330.128C579.025 317.561 586.784 306.642 589.899 294.885C590.585 292.294 587.18 288.458 585.383 286.725L584.837 286.206L585.763 285.749Z"/><path fill="#F2F0EB" d="M880.014 434.865C881.473 435.641 883.549 437.184 884.895 438.189C893.704 444.767 902.81 451.022 911.539 457.697C912.469 479.879 911.575 507.485 911.572 530.036L911.422 674.059C901.409 671.798 890.201 669.942 880.048 668.14C878.963 599.777 880.208 531.049 879.779 462.648C879.721 453.486 879.713 444.014 880.014 434.865Z"/><path fill="#F2F0EB" d="M528.835 517.519C530.401 517.507 530.585 517.454 532.157 517.821C533.343 519.46 532.64 555.771 532.604 560.006L531.916 644.124C510.354 644.033 488.539 642.849 466.933 642.255L466.892 616.129L466.859 557.024C472.077 556.945 487.644 557.668 491.38 554.132C492.799 552.79 492.039 543.573 492.109 541.648C492.344 535.185 469.778 539.825 466.605 537.221C466.31 535.436 466.251 535.452 466.55 533.573C470.315 531.189 515.835 540.297 523.096 538.634C532.592 536.458 524.96 522.37 528.835 517.519Z"/><path fill="#364F3A" d="M520.512 582.076C523.338 581.95 525.199 581.838 527.73 583.077C530.098 586.112 528.403 622.971 528.433 629.231C528.441 630.978 527.625 631.718 526.378 632.704C516.638 633.724 517.676 625.953 518.254 618.329C518.763 611.603 516.893 585.677 520.512 582.076Z"/><path fill="#EB9050" d="M521.726 608.715C522.647 607.68 522.081 607.903 523.369 607.826C525.92 610.235 525.569 614.024 525.451 617.314C526.014 620.946 526.481 623.583 525.72 627.28C524.874 628.488 525.117 628.105 523.779 628.985L522.904 628.708C521.776 626.58 521.909 624.17 521.766 621.702C521.184 618.779 521.162 611.603 521.726 608.715Z"/><path fill="#EB9050" d="M521.766 621.702C524.082 621.232 523.812 620.871 525.337 621.759C525.923 624.162 525.473 625.013 525.72 627.28C524.874 628.488 525.117 628.105 523.779 628.985L522.904 628.708C521.776 626.58 521.909 624.17 521.766 621.702Z"/><path fill="#364F3A" d="M521.766 621.702C521.184 618.779 521.162 611.603 521.726 608.715C521.89 611.354 521.491 614.656 522.23 616.602C523.637 617.645 523.288 617.303 525.451 617.314C526.014 620.946 526.481 623.583 525.72 627.28C525.473 625.013 525.923 624.162 525.337 621.759C523.812 620.871 524.082 621.232 521.766 621.702Z"/><path fill="#EB9050" d="M522.149 586.126C523.746 586.518 523.652 586.446 524.85 587.563C525.908 589.777 525.507 592.249 525.405 594.8C523.427 594.505 523.611 594.85 522.38 593.739C521.448 591.485 521.962 588.677 522.149 586.126Z"/><path fill="#F2F0EB" d="M619.901 243.233L621.759 243.023L622.372 243.518C623.033 255.887 622.51 272.71 622.503 285.363L622.446 365.054C621.845 458.547 621.89 552.043 622.58 645.535C619.262 645.5 615.826 645.344 612.498 645.235L612.762 334.75C612.675 307.655 612.141 280.434 612.435 253.385C602.942 253.531 581.232 256.551 571.16 257.726L488.246 267.462L399.848 276.641C389.916 277.732 368.122 279.714 358.917 281.752C357.87 298.194 362.918 292.854 348.56 303.914C348.487 294.47 348.733 284.643 348.824 275.161C358.287 273.457 372.426 272.231 382.226 271.042L452.075 262.765C507.964 255.808 563.908 249.298 619.901 243.233Z"/><path fill="#F2F0EB" d="M628.514 245.108C634.235 248.457 641.382 253.922 647.107 257.872L691.934 289.16C746.461 326.609 800.391 364.92 853.705 404.077L944.577 470.472C956.746 479.5 971.892 489.424 983.199 499.343C983.64 502.273 984.078 505.23 982.07 507.7C980.585 506.643 978.461 505.451 976.858 504.484C976.537 503.183 976.102 501.915 975.692 500.638C975.163 500.109 969.52 496.124 968.584 495.448L951.51 483.139L886.101 436.193C827.972 394.24 769.351 352.972 710.252 312.398L660.52 278.224C653.931 273.748 642.77 265.707 636.091 262.048C635.615 275.183 636.034 290.838 636.041 304.122L636.008 381.812L635.927 622.195C633.504 621.797 630.896 621.527 628.446 621.229L628.514 245.108Z"/><path fill="#364F3A" d="M983.199 499.343C983.64 502.273 984.078 505.23 982.07 507.7C980.585 506.643 978.461 505.451 976.858 504.484C976.537 503.183 976.102 501.915 975.692 500.638C977.459 501.546 980.177 503.525 981.892 503.413C983.279 502.139 982.861 501.799 983.199 499.343Z"/><path fill="#F2F0EB" d="M949.328 484.909C957.472 490.132 966.36 496.97 974.532 502.632C974.699 516.309 974.188 532.681 974.912 546.088C975.918 535.85 975.051 516.2 975.29 504.804L976.494 504.818L976.858 504.484C978.461 505.451 980.585 506.643 982.07 507.7C981.313 510.864 981.628 520.116 981.659 523.779L981.856 550.79L981.648 654.248C981.642 658.473 981.938 682.972 981.155 685.963C979.892 686.553 980.535 686.328 978.895 686.149C975.19 683.027 977.039 673.605 976.574 668.473C976.061 673.842 976.771 680.802 976.057 685.397L975.47 685.693L975.052 685.524C967.626 683.488 957.209 682.003 949.584 680.804L949.328 484.909Z"/><path fill="#F2F0EB" d="M976.858 504.484C978.461 505.451 980.585 506.643 982.07 507.7C981.313 510.864 981.628 520.116 981.659 523.779L981.856 550.79L981.648 654.248C981.642 658.473 981.938 682.972 981.155 685.963C979.892 686.553 980.535 686.328 978.895 686.149C975.19 683.027 977.039 673.605 976.574 668.473C976.061 673.842 976.771 680.802 976.057 685.397L975.47 685.693L975.052 685.524C974.136 672.006 974.898 649.29 974.863 635.137C974.789 605.661 974.575 575.538 974.912 546.088C975.918 535.85 975.051 516.2 975.29 504.804L976.494 504.818L976.858 504.484Z"/><path fill="#0A1606" d="M974.912 546.088C975.918 535.85 975.051 516.2 975.29 504.804L976.494 504.818L976.495 615.059L976.564 650.107C976.578 655.394 976.856 663.336 976.574 668.473C976.061 673.842 976.771 680.802 976.057 685.397L975.47 685.693L975.052 685.524C974.136 672.006 974.898 649.29 974.863 635.137C974.789 605.661 974.575 575.538 974.912 546.088Z"/><path fill="#F2F0EB" d="M916.928 461.761C921.346 464.085 939.136 477.524 944.434 481.212C943.982 504.43 944.223 528.842 944.198 552.172L944.045 679.699L916.689 674.783C915.912 634.958 916.652 593.031 916.685 553.099L916.71 495.75C916.716 484.727 916.482 472.682 916.928 461.761Z"/><path fill="#F2F0EB" d="M562.285 440.717C565.75 440.572 569.217 440.456 572.684 440.37C575.496 440.317 579.056 440.312 581.141 442.326C581.653 445.359 581.929 448.427 581.965 451.503C582.308 470.08 582.003 489.675 581.993 508.314C582.071 544.987 581.933 581.659 581.577 618.33C581.516 625.342 581.874 659.096 580.747 662.511C579.601 663.925 579.196 663.9 577.46 664.39C570.807 664.5 564.156 664.678 557.506 664.924L557.274 519.221C557.251 512.56 556.356 444.138 557.391 441.434C558.975 440.465 560.207 440.773 562.285 440.717Z"/><path fill="#F2F0EB" d="M628.567 628.231C638.184 629.344 720.138 643.422 723.359 645.863L723.916 645.85C725.725 645.424 745.088 648.993 746.471 650.097L747.949 649.969C761.258 652.241 774.546 654.624 787.815 657.117C790.771 657.667 800.149 659.09 802.497 659.989L803.053 661.082L803.852 660.767C805.636 659.798 812.395 660.931 813.602 662.965L813.982 662.907C815.257 661.973 814.671 662.113 816.903 662.498C824.947 663.885 833.06 665.445 841.075 667C844.257 667.617 851.334 668.466 854.029 669.469L854.695 670.502L854.979 670.469L855.799 669.722C860.651 670.022 873.326 672.562 878.587 673.599C885.704 675.002 896.386 676.581 903.155 678.306L904.348 678.706C906.72 678.68 929.051 682.86 930.528 683.582L931.726 683.744C933.951 683.304 945.973 685.544 947.823 686.86L948.34 686.865C950.619 686.277 953.265 686.671 955.46 687.443L956.001 687.983L957.22 687.826C959.523 687.842 962.207 687.994 963.956 689.48C964.805 689.807 965.066 689.804 965.757 690.336L966.282 689.665C968.097 689.763 970.683 690.111 972.169 691.196L972.757 691.5L973.052 697.149L972.745 699.67L972.2 699.746C970.424 700.208 966.711 699.538 964.934 699.078C958.507 698.679 948.261 696.902 941.669 695.904L911.807 691.553C909.291 691.167 906.409 690.056 904.162 689.817C894.583 688.797 885.018 687.348 875.445 686.118C829.26 679.842 783.208 672.62 737.318 664.458C701.4 658.4 664.251 653.429 628.557 646.864L628.567 628.231Z"/><path fill="#364F3A" d="M723.359 645.863L723.916 645.85C724.471 648.907 725.058 655.594 722.987 658.036L722.002 658.085C718.344 655.266 719.579 648.5 723.359 645.863Z"/><path fill="#364F3A" d="M746.471 650.097L747.949 649.969C748.418 652.799 749.965 661.272 746.003 661.884C743.274 659.047 744.769 653.193 746.471 650.097Z"/><path fill="#364F3A" d="M813.982 662.907C815.977 665.524 817.027 669.493 814.996 672.375C813.384 673.296 814.196 673.196 812.503 672.847L811.67 671.556C811.28 669.028 812.347 665.156 813.602 662.965L813.982 662.907Z"/><path fill="#364F3A" d="M803.053 661.082L803.852 660.767C805.339 663.482 806.218 668.899 803.439 671.084L802.204 670.818C800.192 668.34 801.458 663.496 803.053 661.082Z"/><path fill="#364F3A" d="M854.979 670.469C856.816 672.986 857.524 676.5 856.111 679.36C854.662 680.404 855.418 680.256 853.814 680.016L853.039 678.944C852.495 676.209 853.449 672.945 854.695 670.502L854.979 670.469Z"/><path fill="#364F3A" d="M903.155 678.306L904.348 678.706C904.66 681.53 904.924 684.654 903.476 687.112L902.589 687.229C900.638 684.708 901.813 680.864 903.155 678.306Z"/><path fill="#364F3A" d="M930.528 683.582L931.726 683.744C932.059 685.727 932.537 690.356 930.546 691.444L929.757 690.667C928.989 688.054 929.408 686.052 930.528 683.582Z"/><path fill="#364F3A" d="M956.001 687.983L957.22 687.826C957.609 690.25 958.312 693.777 956.344 695.501L955.539 694.895C954.772 692.685 955.348 690.196 956.001 687.983Z"/><path fill="#364F3A" d="M963.956 689.48C964.805 689.807 965.066 689.804 965.757 690.336C965.438 692.876 965.214 695.97 964.232 698.285L963.539 697.378C963.084 694.794 963.179 691.994 963.956 689.48Z"/><path fill="#364F3A" d="M947.823 686.86L948.34 686.865C948.867 689.089 949.631 691.801 948.03 693.621L947.217 693.101C946.454 690.81 946.933 689.03 947.823 686.86Z"/><path fill="#364F3A" d="M972.169 691.196L972.757 691.5L973.052 697.149L972.745 699.67L972.2 699.746C971.085 697.07 971.147 693.899 972.169 691.196Z"/><path fill="#364F3A" d="M636.074 631.601C640.279 633.312 638.902 643.074 637.379 646.149C636.123 645.514 635.02 645.267 634.71 643.732C633.929 639.863 633.986 634.969 636.074 631.601Z"/><path fill="#364F3A" d="M674.195 637.172C678.185 639.09 676.307 647.849 675.077 651.173C674.794 651.091 673.726 650.793 673.519 650.669C669.993 648.555 672.604 639.626 674.195 637.172Z"/><path fill="#364F3A" d="M697.291 641.201C702.001 642.429 700.317 651.649 698.881 654.838C697.855 654.314 696.934 654.102 696.512 653.232C695.197 650.512 696.278 643.896 697.291 641.201Z"/><path fill="#364F3A" d="M660.636 636.275C662.9 636.883 662.075 636.274 663.412 637.832C664.186 641.396 663.446 645.277 663.085 649.016C661.86 648.791 660.458 648.709 659.923 647.554C658.529 644.54 659.568 639.222 660.636 636.275Z"/><path fill="#364F3A" d="M647.862 634.66C653.159 636.181 650.932 642.812 649.919 647.037C648.915 646.787 647.57 646.694 647.118 645.993C645.555 643.567 647.275 637.569 647.862 634.66Z"/><path fill="#364F3A" d="M684.851 639.093C685.702 639.336 686.809 639.603 687.15 640.344C688.519 643.319 687.297 649.652 686.614 652.766C685.193 652.326 685.131 652.425 684.061 651.443C682.832 647.611 684.109 643.127 684.851 639.093Z"/><path fill="#364F3A" d="M709.542 643.667C709.92 643.845 710.78 644.443 711.166 644.695C712.842 647.693 711.86 653.492 711.033 656.739C710.859 656.689 710.686 656.638 710.512 656.588C705.993 655.97 708.201 646.816 709.542 643.667Z"/><path fill="#364F3A" d="M733.479 648.636C737.943 650.724 736.796 656.812 735.328 660.733C734.526 660.47 733.094 660.039 732.73 659.417C731.202 656.816 732.703 651.416 733.479 648.636Z"/><path fill="#364F3A" d="M757.443 652.57C762.346 653.558 759.944 661.704 758.518 664.872C758.216 664.913 757.421 664.835 757.079 664.813C755.272 662.342 756.78 655.542 757.443 652.57Z"/><path fill="#364F3A" d="M769.514 655.238C773.497 657.421 771.954 663.286 771.068 667.145C769.768 666.716 768.643 666.679 768.309 665.419C767.565 662.609 768.043 657.65 769.514 655.238Z"/><path fill="#364F3A" d="M791.339 659.168C793.329 659.594 792.671 659.07 793.674 660.37C794.176 663.595 793.695 667.284 792.84 670.417C787.842 669.717 790.089 662.416 791.339 659.168Z"/><path fill="#364F3A" d="M781.662 656.847C783.954 659.485 783.169 666.41 780.863 668.899C777.442 666.407 779.213 659.584 781.662 656.847Z"/><path fill="#364F3A" d="M834.146 666.261C837.631 668.764 836.21 675.5 834.526 678.838C831.187 676.633 832.648 669.263 834.146 666.261Z"/><path fill="#364F3A" d="M823.409 665.168C824.762 665.779 824.677 665.715 825.571 666.901C826.258 670.193 825.636 672.823 825.059 676.134C820.42 674.319 822.593 669.436 823.409 665.168Z"/><path fill="#364F3A" d="M864.417 673.009C866.132 673.669 865.481 673.142 866.515 674.543C867.096 677.827 866.641 680.082 865.518 683.223C862.069 681.442 863.309 675.923 864.417 673.009Z"/><path fill="#364F3A" d="M843.89 669.587C845.626 670.156 845.003 669.64 845.942 671.026C846.436 674.39 845.848 676.708 845.03 680.015L843.255 678.722C841.976 675.58 843.071 672.916 843.89 669.587Z"/><path fill="#364F3A" d="M873.92 673.593C875.061 673.959 874.975 673.947 875.779 674.851C876.736 677.985 876.64 680.46 875.661 683.578C871.545 681.868 873.302 677.503 873.92 673.593Z"/><path fill="#364F3A" d="M893.377 677.207C894.63 677.907 894.22 677.584 895.129 678.699C895.737 681.969 895.094 684.013 894.404 687.301C891.084 685.533 892.827 680.455 893.377 677.207Z"/><path fill="#364F3A" d="M920.97 682.234C923.905 684.07 922.786 688.646 921.751 691.383C920.63 690.702 921.001 690.994 920.163 689.962C919.515 686.937 919.908 685.147 920.97 682.234Z"/><path fill="#364F3A" d="M884.041 676.207C885.352 676.736 884.908 676.446 885.851 677.539C886.537 680.314 886.269 682.381 885.416 685.108C884.341 684.814 884.729 684.963 883.805 684.253C882.981 681.321 883.525 679.235 884.041 676.207Z"/><path fill="#364F3A" d="M912.564 680.827C914.66 683.658 913.482 686.419 912.635 689.501C911.545 688.755 911.907 689.079 911.142 687.973C910.663 684.847 911.155 683.709 912.564 680.827Z"/><path fill="#364F3A" d="M938.464 685.644C939.568 686.09 939.183 685.846 939.983 686.779C940.569 689.485 940.161 691.535 939.372 694.177L938.306 693.226C937.477 690.337 937.581 688.538 938.464 685.644Z"/><path fill="#F2F0EB" d="M418.117 408.236C428.793 407.519 438.22 413.336 448.694 408.215C453.737 408.589 466.715 409.445 468.473 415.105C467.512 419.847 459.885 420.177 456.467 422.468C451.975 425.48 448.521 429.481 444.195 432.709C436.197 433.376 419.07 432.087 410.287 431.66C395.42 430.919 380.549 430.284 365.673 429.753C347.937 428.975 334.159 427.742 316.511 430.429C305.447 432.114 292.191 433.301 280.993 434.149C271.31 435.264 261.546 435.808 251.922 437.493C245.059 438.695 238.093 440.409 231.296 442.004C234.375 437.872 237.829 433.774 241.414 430.078C244.2 427.206 247.392 424.068 251.065 422.381C280.924 408.665 380.136 408.814 418.117 408.236Z"/><path fill="#F2F0EB" d="M45.8688 659.928C61.9458 639.006 79.7876 620.574 106.562 614.566C106.435 629.187 105.541 643.785 105.654 658.512C105.608 660.214 105.835 660.949 105.079 662.303C100.292 663.097 93.7439 662.145 89.5933 662.779C83.5775 663.698 49.1397 661.158 47.0037 665.78C35.3906 690.913 45.2613 687.616 64.0154 687.548C78.0598 687.578 92.104 687.469 106.146 687.22L106.141 700.116L106.155 704.971L106.198 714.613C82.3112 714.159 57.9268 714.831 34.1104 714.066C34.2679 711.054 34.3615 708.134 34.7799 705.145L34.832 704.503C35.8129 692.811 38.2984 673.954 43.0187 662.971C43.4123 662.055 45.0588 660.615 45.8688 659.928Z"/><path fill="#EB9050" d="M45.8688 659.928C61.9458 639.006 79.7876 620.574 106.562 614.566C106.435 629.187 105.541 643.785 105.654 658.512C85.7164 658.478 65.8227 659.458 45.8688 659.928Z"/><path fill="#EB9050" d="M69.1606 704.565C81.3076 704.95 94.3578 704.374 106.155 704.971L106.198 714.613C82.3112 714.159 57.9268 714.831 34.1104 714.066C34.2679 711.054 34.3615 708.134 34.7799 705.145C45.686 704.818 58.365 704.138 69.1606 704.565Z"/><path fill="#EABBB1" d="M69.1606 704.565C68.9968 702.764 68.9428 702.641 69.2092 700.774C71.199 699.577 101.007 700.193 106.141 700.116L106.155 704.971C94.3578 704.374 81.3076 704.95 69.1606 704.565Z"/><path fill="#EB9050" d="M356.936 704.307C357.284 702.561 357.648 700.818 358.026 699.079C363.802 672.651 380.341 640.674 407.245 629.58C413.546 626.981 425.289 623.705 432.083 625.266C449.438 632.113 466.041 658.301 473.131 674.745C476.669 682.88 479.453 691.323 481.448 699.967C485.432 717.834 487.052 743.571 483.106 761.75C482.596 764.102 479.998 764.286 478.055 764.3L477.397 763.797C478.362 757.233 479.743 749.394 479.636 742.834C479.17 714.27 472.182 683.862 455.438 660.306C450.301 653.079 442.229 645.839 433.038 644.451C401.519 644.664 382.021 690.452 375.764 713.667L355.85 713.465C356.154 710.396 356.408 707.345 356.936 704.307Z"/><path fill="#F2F0EB" d="M356.936 704.307C357.284 702.561 357.648 700.818 358.026 699.079C363.802 672.651 380.341 640.674 407.245 629.58C413.546 626.981 425.289 623.705 432.083 625.266C426.444 628.112 420.585 629.141 414.986 632.755C389.851 648.98 380.336 677.038 370.32 703.585C370.233 703.844 370.145 704.104 370.058 704.364C365.724 704.343 361.256 704.26 356.936 704.307Z"/><path fill="#F2F0EB" d="M686.143 667.448C711.105 666.93 716.232 767.338 690.916 781.103C666.167 785.183 662.122 686.5 686.143 667.448Z"/><path fill="#364F3A" d="M687.415 691.341C702.578 693.081 704.696 746.537 689.846 759.141C676.053 763.38 670.926 703.821 687.415 691.341Z"/><path fill="#F2F0EB" d="M602.508 259.293C604.806 259.063 607.533 258.983 609.872 258.852L609.855 282.438C605.839 280.284 602.639 279.088 597.991 279.117C584.267 279.2 570.343 280.137 556.641 280.905L485.699 284.765C458.661 285.943 431.63 287.293 404.609 288.814C395.913 289.325 377.65 289.675 370.024 291.426L362.125 294.962C362.055 291.565 362.175 288.092 362.252 284.688C369.855 283.383 379.594 282.56 387.387 281.718L441.35 276.248C495.033 270.258 548.754 264.606 602.508 259.293Z"/><path fill="#F2F0EB" d="M731.507 669.987C754.455 670.895 758.533 768.511 733.77 777.056C728.137 777.611 725.094 774.73 722.365 770.029C711.864 751.942 708.674 678.604 731.507 669.987Z"/><path fill="#364F3A" d="M731.314 692.397C745.232 692.213 747.757 745.385 733.472 757.785C733.225 757.771 731.776 757.68 731.649 757.624C719.827 752.431 721.501 720.096 722.538 711.491C723.63 702.426 726.673 695.884 731.314 692.397Z"/><path fill="#EB9050" d="M449.643 402.927L449.62 402.39L449.574 401.496C449.414 398.005 449.418 397.652 448.474 394.331C477.283 395.021 505.975 398.247 534.218 403.971C553.289 406.411 551.594 419.661 551.492 434.826C547.269 436.038 546.178 436.647 542.667 439.477C538.059 435.289 528.839 434.369 522.626 433.349C503.94 430.279 484.292 425.883 465.56 423.816C469.31 421.863 471.913 420.673 473.32 416.33C473.568 415.575 473.774 414.805 473.936 414.027C470.671 403.902 458.556 403.85 449.643 402.927Z"/><path fill="#F2F0EB" d="M449.643 402.927L449.62 402.39L449.574 401.496C449.414 398.005 449.418 397.652 448.474 394.331C477.283 395.021 505.975 398.247 534.218 403.971C532.423 404.89 508.592 408.259 505.907 408.234C500.836 408.187 476.08 415.026 474.116 414.552L473.936 414.027C470.671 403.902 458.556 403.85 449.643 402.927Z"/><path fill="#F2F0EB" d="M275.706 444.65L276.686 444.588C279.092 446.69 288.757 466.323 291.42 470.831C304.891 469.636 317.806 470.377 331.082 467.599C328.605 470.287 323.61 475.444 321.618 477.984C312.039 490.196 309.774 492.034 295.625 497.287C290.127 499.604 283.859 502.413 278.062 503.633C268.747 505.594 259.51 507.37 250.241 509.591C252.048 502.722 253.582 494.083 255.094 487C257.963 473.558 260.913 460.133 263.945 446.726L275.706 444.65Z"/><path fill="#F2F0EB" d="M201.187 775.019C227.193 776.327 253.273 776.463 279.281 777.809C298.533 778.805 318.863 779.966 337.615 784.676C331.417 786.227 315.537 787.25 308.613 787.873C267.899 791.316 230.962 799.514 191.282 806.974C196.312 794.412 198.687 788.378 201.187 775.019Z"/><path fill="#F2F0EB" d="M536.369 517.25C537.98 517.058 539.404 516.67 540.832 517.297C541.187 517.944 541.383 518.323 541.372 519.094C540.711 566.728 542.289 614.759 541.258 662.366C520.687 663.111 495.895 661.867 474.923 661.792L473.057 658.738C470.856 654.643 467.983 650.347 465.463 646.394C487.075 646.45 514.289 648.593 535.337 647.765C536.324 636.736 535.588 617.725 535.695 606.02L536.369 517.25Z"/><path fill="#F2F0EB" d="M552.48 440.653C553.908 442.51 553.447 648.427 553.389 667.471C550.599 668.819 548.377 670.195 545.733 671.8L545.362 671.832L544.913 671.297C545.761 662.507 545.519 653.386 545.536 644.53L545.599 605.559C545.517 566.155 545.637 526.75 545.96 487.347C545.968 480.939 544.694 446.327 546.741 443.028C547.818 441.291 550.618 441.04 552.48 440.653Z"/><path fill="#F2F0EB" d="M558.117 708.715L564.819 708.574C561.988 738.263 535.639 738.536 512.392 738.497L506.432 738.673C507.024 727.564 506.999 721.392 506.321 710.227C523.592 709.945 540.859 709.441 558.117 708.715Z"/><path fill="#F2F0EB" d="M233.345 451.064C235.91 451.152 242.372 450.97 243.928 453.044C244.442 460.037 231.858 505.622 229.338 515.099C227.22 515.76 225.087 516.281 222.938 516.834L214.574 519.219C214.329 497.742 214.62 475.453 214.749 453.929C222.103 454.11 227.367 455.232 233.345 451.064Z"/><path fill="#EB9050" d="M757.916 675.206C776.049 678.174 794.367 680.408 812.492 683.534C819.889 684.81 827.314 685.433 834.722 686.914C829.99 689.298 828.29 690.517 822.948 690.735L824.678 691.353C823.603 691.922 823.845 691.881 822.693 692.162C818.256 695.446 815.2 695.085 810.894 699.38L802.636 699.475C803.527 703.13 803.562 704.328 803.721 708.109C794.994 708.02 779.673 707.546 771.157 706.336C771.002 703.11 771.201 701.169 771.483 697.958C773.539 697.982 777.674 698.382 778.969 696.751C776.379 694.845 762.53 693.678 757.945 692.722C757.83 690.201 757.938 687.761 758.01 685.241L757.798 682.86C757.9 680.31 757.939 677.758 757.916 675.206Z"/><path fill="#EB9050" d="M757.916 675.206C776.049 678.174 794.367 680.408 812.492 683.534C819.889 684.81 827.314 685.433 834.722 686.914C829.99 689.298 828.29 690.517 822.948 690.735L824.678 691.353C823.603 691.922 823.845 691.881 822.693 692.162C814.327 692.155 804.762 690.89 796.378 689.967C783.555 688.675 770.763 687.1 758.01 685.241L757.798 682.86C757.9 680.31 757.939 677.758 757.916 675.206Z"/><path fill="#364F3A" d="M757.798 682.86C776.891 685.789 803.689 689.237 822.948 690.735L824.678 691.353C823.603 691.922 823.845 691.881 822.693 692.162C814.327 692.155 804.762 690.89 796.378 689.967C783.555 688.675 770.763 687.1 758.01 685.241L757.798 682.86Z"/><path fill="#F2F0EB" d="M558.952 332.619C561.684 333.528 568.393 332.556 571.646 332.403C571.144 339.152 571.493 349.739 571.496 356.778L571.486 405.469C571.478 415.441 571.746 427.208 571 436.979L557.901 437.24C557.914 425.33 557.394 336.068 558.952 332.619Z"/><path fill="#F2F0EB" d="M579.574 681.154C587.098 680.682 598.525 680.763 605.583 683.738C622.899 691.038 630.898 713.241 623.401 730.339C617.541 733.705 602.672 731.684 596.203 730.815C597.633 723.343 597.409 720.814 596.484 713.481C594.59 698.475 593.394 689.572 579.574 681.154Z"/><path fill="#F2F0EB" d="M759.74 742.229C776.791 741.533 795.966 741.905 813.175 741.825C813.683 747.14 816.086 753.242 817.852 758.385L810.62 759.194C801.66 760.152 792.433 761.465 783.458 762.552C775.718 763.49 766.813 764.285 759.233 765.657C759.096 762.024 758.189 744.02 759.74 742.229Z"/><path fill="#F2F0EB" d="M524.297 444.711C527.085 444.469 528.205 444.831 530.919 445.365C532.657 460.295 532.058 493.817 532.164 510.377C532.171 511.477 531.212 511.961 530.4 512.403C528.044 512.18 529.121 512.544 527.092 511.137C525.596 510.166 522.558 511.943 519.742 510.364C517.332 507.427 517.366 454.169 517.279 445.71C519.616 445.359 521.955 445.026 524.297 444.711Z"/><path fill="#F2F0EB" d="M398.709 394.723C402.169 394.643 423.55 393.982 425.233 394.849C424.066 398.064 423.557 398.993 423.908 402.497C392.625 402.04 355.941 403.524 324.739 405.29C320.883 405.591 301.116 407.66 299.561 406.794C299.179 405.194 299.261 405.227 299.487 403.567C301.519 401.487 306.909 401.656 309.856 401.101C338.54 395.697 369.641 395.542 398.709 394.723Z"/><path fill="#F2F0EB" d="M378.79 748.877C379.291 752.611 378.916 757.891 379.044 761.801C379.847 786.244 384.572 818.963 405.981 834.149C402.329 833.97 398.358 833.505 394.689 833.146C374.991 823.085 367.275 780.832 367.563 760.787C371.997 756.745 374.937 753.382 378.79 748.877Z"/><path fill="#F2F0EB" d="M271.16 317.662L272.956 318.011C275.447 320.271 277.382 325.195 278.47 328.42C284.364 345.896 287.374 364.496 286.763 382.951C286.639 386.71 286.982 390.268 286.133 393.966C285.099 394.936 282.689 395.012 281.127 395.22C279.293 395.505 277.22 396.103 275.401 396.572C275.295 377.826 277.539 370.655 274.549 350.986C273.798 346.229 272.762 341.52 271.448 336.887C270.267 332.721 268.602 327.856 268.061 323.587C267.769 321.281 269.72 319.231 271.16 317.662Z"/><path fill="#F2F0EB" d="M364.378 762.902C365.512 768.403 365.288 777.252 366.623 783.568C370.398 801.415 374.999 822.176 390.529 833.282C386.96 832.681 383.974 832.528 380.368 832.301C377.743 831.978 376.527 831.718 374.525 829.729C359.385 814.689 355.735 789.141 354.099 769.318C357.582 767.51 361.079 765.081 364.378 762.902Z"/><path fill="#F2F0EB" d="M483.319 686.152C500.607 688.34 501.412 707.062 502.283 720.796C503.009 732.226 501.558 743.96 498.61 755.014C497.013 756.944 494.172 757.453 491.8 757.572C489.686 756.402 490.938 750.043 491.061 746.985C491.883 726.561 489.857 705.519 483.319 686.152Z"/><path fill="#F2F0EB" d="M584.749 707.711C593.19 706.864 594.568 710.821 595.187 718.785C596.474 735.354 582.391 736.104 569.975 736.576C566.556 736.641 562.538 736.966 559.428 735.583C558.014 733.523 563.314 730.494 564.919 727.947C568.924 721.586 570.343 715.823 571.128 708.449C575.67 708.233 580.21 707.986 584.749 707.711Z"/><path fill="#F2F0EB" d="M205.354 447.235C210.458 447.134 222.965 446.526 227.513 447.689L227.717 448.199C221.677 451.464 204.285 445.182 201.339 452.734L202.004 453.503C204.442 454.361 207.251 454.022 209.909 453.941C209.713 468.598 209.864 483.578 209.859 498.26C209.77 504.268 210.507 511.02 209.164 516.73C208.205 520.808 199.575 518.833 199.687 515.396C199.955 507.193 198.111 451.85 200.668 448.508C202.46 447.318 203.116 447.443 205.354 447.235Z"/><path fill="#5D6738" d="M203.044 512.259C204.937 512.423 205.1 512.322 206.835 513.2C208.131 514.558 208.122 515.317 208.534 517.145C206.778 517.143 206.364 517.245 204.73 516.508C203.442 515.247 203.421 514.055 203.044 512.259Z"/><path fill="#F2F0EB" d="M603.986 678.894C610.295 679.68 619.276 682.525 624.613 686.317C640.125 697.34 643.258 722.58 632.2 737.647C625.097 747.326 607.792 750.677 596.492 751.922C593.904 752.308 591.053 752.6 588.435 752.917L588.484 746.042C596.777 746.034 607.198 746.583 615.147 744.243C620.405 742.695 624.648 737.645 626.946 732.788C631.634 722.881 631.435 711.741 627.495 701.609C622.54 688.767 616.054 684.236 603.986 678.894Z"/><path fill="#F2F0EB" d="M559.171 669.959C564.233 670.545 567.297 670.243 572.421 669.908C565.235 690.308 551.61 692.357 532.661 692.771C525.725 692.909 518.787 692.946 511.85 692.882L502.387 692.748L497.943 687.06C509.459 687.126 521.495 687.458 532.948 686.813C541.13 686.352 554.311 676.191 559.171 669.959Z"/><path fill="#F2F0EB" d="M570.504 746.709C573.636 746.463 577.829 746.487 581.047 746.414L581.059 753.701C565.197 755.095 549.125 755.53 533.253 757.064C526.81 757.687 520.097 758.246 513.641 758.524L502.316 758.941C503.575 755.834 504.153 753.807 505.057 750.594C526.451 749.866 549.038 748.081 570.504 746.709Z"/><path fill="#F2F0EB" d="M855.644 742.043C870.851 742.352 886.062 742.356 901.269 742.053C901.672 746.039 901.937 747.915 902.871 751.794L896.465 752.838C884.114 754.83 866.262 756.186 853.521 756.561L855.644 742.043Z"/><path fill="#F2F0EB" d="M73.7081 774.507L84.2443 774.926C86.618 796.003 96.1295 815.635 111.2 830.56L101.798 830.404C85.2878 817.899 77.4678 794.122 73.7081 774.507Z"/><path fill="#F2F0EB" d="M558.883 331.855C556.459 322.512 567.469 300.263 573.422 293.059C575.803 287.737 585.364 289.802 583.596 295.309C580.208 305.868 571.667 319.726 571.948 331.315L571.919 332.161L571.646 332.403C568.393 332.556 561.684 333.528 558.952 332.619L558.883 331.855Z"/><path fill="#364F3A" d="M558.883 331.855C562.611 330.861 568.132 330.783 571.948 331.315L571.919 332.161L571.646 332.403C568.393 332.556 561.684 333.528 558.952 332.619L558.883 331.855Z"/><path fill="#F2F0EB" d="M350.555 770.578C351.642 771.741 352.475 782.063 352.788 784.449C355.226 803.04 360.786 818.66 373.456 832.643C371.275 832.19 369.117 831.63 366.955 831.092C347.429 822.786 344.093 791.045 342.547 772.886C345.101 772.246 347.996 771.329 350.555 770.578Z"/><path fill="#F2F0EB" d="M60.8582 773.73C64.4756 773.891 67.2941 774.038 70.8781 774.505C74.9802 795.949 81.8448 814.786 97.6163 830.472L88.2863 830.476C75.3857 818.119 68.4251 801.851 63.5235 784.995C62.7271 782.256 60.7513 776.378 60.8582 773.73Z"/><path fill="#F2F0EB" d="M509.506 519.297L515.655 518.864C515.625 523.821 515.966 529.004 516.208 533.973C503.877 532.028 491.311 530.882 478.881 528.771C475.559 528.326 469.761 527.882 467.06 526.15C466.475 524.94 466.651 524.802 466.805 523.414C469.302 521.745 504.29 519.693 509.506 519.297Z"/><path fill="#F2F0EB" d="M86.9237 774.986L95.5619 775.109C100.007 798.852 105.822 815.594 124.084 831.399C119.781 831.218 116.326 831.214 112.799 828.282C97.5767 815.627 90.3826 793.307 86.9237 774.986Z"/><path fill="#F2F0EB" d="M463.747 443.806C463.868 443.893 463.989 443.981 464.11 444.069C473.901 455.121 482.504 467.564 491.294 479.434C494.14 483.278 505.195 496.763 505.503 500.658C501.732 499.127 474.772 462.839 470.45 457.204L466.141 451.635C464.975 461.74 465.097 472.757 464.243 484.161C463.561 493.258 462.386 512.175 461.705 522.337C461.666 522.905 463.442 522.464 464.308 524.997C463.497 526.386 464.028 525.819 462.577 526.682C460.668 526.618 461.546 526.875 459.882 525.77C459.014 523.828 463.037 448.695 463.747 443.806Z"/><path fill="#F2F0EB" d="M559.62 695.51C562.105 695.538 563.683 702.218 564.395 704.338C546.005 704.698 526.917 705.605 508.375 706.079C507.438 706.08 506.964 705.992 506.033 705.877C504.481 704.391 504.318 701.626 503.871 699.37C519.945 698.628 545.254 700.822 559.62 695.51Z"/><path fill="#F2F0EB" d="M343.91 439.97C344.908 442.431 336.4 492.241 335.762 499.833L329.256 499.802C328.621 499.076 328.551 499.036 328.733 497.926C330.812 485.935 332.966 473.906 334.869 461.883C336.536 451.347 335.897 447.548 343.91 439.97Z"/><path fill="#F2F0EB" d="M509.478 444.028C510.937 443.907 511.483 443.849 512.975 443.933C512.668 443.418 514.907 507.244 515.375 513.193L514.37 513.908C513.882 513.911 513.394 513.909 512.906 513.9C511.047 513.852 510.95 513.929 510.006 512.939C509.38 509.461 509.491 503.944 509.358 500.179C509.037 492.25 508.803 484.318 508.655 476.384C508.551 471.22 507.125 447.524 509.478 444.028Z"/><path fill="#F2F0EB" d="M573.087 684.346C584.903 685.382 589.09 693.069 591.942 703.461L584.124 703.781C579.94 703.992 575.244 703.978 571.016 704.061C569.62 699.103 568.29 696.428 565.554 692.098C568.543 689.358 570.38 687.39 573.087 684.346Z"/><path fill="#F2F0EB" d="M624.173 681.982C645.019 682.283 653.771 708.43 648.461 725.284C646.624 731.114 644.309 734.469 639.969 738.646C637.848 740.252 637.133 740.582 634.702 741.714C636.164 739.788 637.291 738.264 638.439 736.119C643.891 725.916 645.03 713.953 641.6 702.904C638.699 693.726 632.73 686.406 624.173 681.982Z"/><path fill="#F2F0EB" d="M459.42 551.715C461.024 552.405 461.979 552.978 463.495 553.863C463.203 583.454 463.139 613.046 463.303 642.638L462.966 642.725C461.548 642.138 460.421 640.327 459.42 639.027L459.42 551.715Z"/><path fill="#F2F0EB" d="M603.564 629.207C605.031 628.97 604.965 628.961 606.429 629.19C608.349 631.422 607.326 640.577 607.161 643.954C602.485 644.972 596.288 645.018 591.434 645.113C589.871 645.159 589.876 645.236 588.418 644.755C586.615 642.021 587.453 634.241 587.496 630.496L603.564 629.207Z"/><path fill="#364F3A" d="M595.945 631.622L597.529 632.052C599.348 633.925 598.876 640.427 597.55 642.658L595.494 642.125C593.324 639.665 594.131 634.169 595.945 631.622Z"/><path fill="#F2F0EB" d="M595.22 732.382C604.749 734.264 611.801 734.631 621.412 733.892C620.891 734.457 620.362 735.015 619.825 735.564C613.247 742.269 605.463 741.518 596.75 741.588C587.676 741.513 577.275 742.574 568.682 742.207C579.019 739.027 586.63 742.018 595.22 732.382Z"/><path fill="#F2F0EB" d="M53.7589 669.707C60.2864 669.457 67.3977 669.526 73.9727 669.47C73.2807 671.986 72.4324 678.927 70.5247 679.974L50.0038 680.022C50.6957 676.74 51.2553 671.417 53.7589 669.707Z"/><path fill="#F2F0EB" d="M84.1908 669.243C89.7062 669.011 95.2247 669.077 100.745 669.09C100.46 671.4 100.276 673.717 99.9764 676.018C99.4547 680.029 97.6848 679.617 94.6547 679.748L78.6046 679.96C79.315 676.969 79.4717 673.329 80.8149 670.584C81.4805 669.223 82.5938 669.448 84.1908 669.243Z"/><path fill="#F2F0EB" d="M463.522 428.802C466.57 429.095 469.978 429.604 473.011 430.12C490.661 433.12 509.147 435.419 526.56 439.443L523.844 440.161C520.729 439.858 517.59 439.663 514.465 439.392C498.154 437.979 481.767 434.322 465.458 433.255C465.524 436.062 466.012 438.988 464.316 441.144L463.774 440.59C463.162 437.327 463.449 432.275 463.522 428.802Z"/><path fill="#F2F0EB" d="M552.844 738.089L554.196 737.92C557.804 739.978 562.117 741.547 566.04 742.939C561.56 743.528 553.741 743.718 549.004 743.987C538.301 744.644 527.591 745.196 516.877 745.646C514.544 745.812 507.863 746.481 505.995 746.005L505.671 745.174L506.302 743.901C509.24 743.106 522.786 742.601 526.75 742.302C536.828 741.542 543.093 740.407 552.844 738.089Z"/><path fill="#F2F0EB" d="M936.568 707.848C937.087 708.39 938.051 709.52 938.095 710.189C938.557 717.229 939.447 747.026 937.223 751.548L936.114 751.731C932.491 743.12 931.219 715.693 936.568 707.848Z"/><path fill="#F2F0EB" d="M954.538 708.674C957.895 710.959 957.214 719.887 956.815 723.722C956.045 731.115 958.042 746.504 954.582 752.593C950.915 743.757 949.768 717.07 954.538 708.674Z"/><path fill="#F2F0EB" d="M970.48 710.174C970.924 710.375 972.202 710.779 972.242 711.287C972.96 720.402 973.862 741.833 970.933 750.152C966.439 744.375 967.145 716.695 970.48 710.174Z"/><path fill="#F2F0EB" d="M533.375 440.542L537.946 441.506C537.987 449.631 538.986 507.52 537.477 511.406C536.16 508.276 536.699 500.318 536.591 496.415C536.123 479.511 537.51 461.428 535.205 444.737C535.005 443.289 534.134 442.197 533.17 441.226L533.375 440.542Z"/><path fill="#EABBB1" d="M431.448 395.587C435.334 395.412 439.003 395.522 442.892 395.608C443.044 398.037 443.475 402.944 442.738 405.128L441.894 405.271C435.859 404.724 424.978 405.949 431.448 395.587Z"/><path fill="#F2F0EB" d="M470.285 542.775C476.094 542.458 482.665 542.463 488.529 542.357C488.643 544.407 488.923 546.277 488.372 548.225C487.152 549.285 487.549 548.947 485.382 548.861C481.882 548.441 467.106 547.531 466.431 544.069C467.546 542.542 468.501 542.911 470.285 542.775Z"/><path fill="#F2F0EB" d="M973.052 697.149C973.495 694.268 972.465 692.143 975.518 690.924C977.115 691.431 977.383 691.415 978.763 692.414L980.112 692.113C982.731 692.688 982.324 692.173 983.755 693.816C984.587 696.574 984.03 698.668 983.997 701.54C981.287 701.435 974.775 701.354 972.745 699.67L973.052 697.149Z"/><path fill="#364F3A" d="M978.763 692.414L980.112 692.113C980.087 694.447 980.31 696.412 979.342 698.48L978.924 698.371C978.329 695.767 978.515 695.151 978.763 692.414Z"/><path fill="#EABBB1" d="M282.923 401.005L283.427 400.975C289.202 400.675 293.982 401.304 294.327 407.922L283.014 409.155L282.923 401.005Z"/><path fill="#F2F0EB" d="M459.54 531.844C461.107 531.869 461.925 531.765 463.388 532.367C465.244 534.7 463.775 540.553 463.56 544.382L463.24 544.652C461.288 544.978 462.149 545.14 460.531 544.459C458.96 542.424 459.497 534.791 459.54 531.844Z"/><path fill="#638666" d="M524.183 512.359C524.898 516.04 524.981 533.612 524.268 537.452C522.8 534.79 523.366 515.407 524.183 512.359Z"/><path fill="#F2E2C8" d="M276.089 402.228L277.173 402.764C278.013 405.748 278.324 408.586 275.76 410.623C272.45 408.416 274.017 404.651 276.089 402.228Z"/><path fill="#B6956B" d="M456.21 487.636C456.51 484.56 456.736 481.465 457.322 478.435C457.61 481.618 457.677 487.562 457.149 490.667C456.957 489.39 456.674 488.838 456.21 487.636Z"/><path fill="#638666" d="M526.56 439.443C529.068 439.581 530.958 439.739 533.375 440.542L533.17 441.226C530.2 440.588 526.896 440.42 523.844 440.161L526.56 439.443Z"/><path fill="#EB9050" d="M994.025 771.147C994.5 771.255 994.164 771.148 994.891 771.753C995.11 776.466 994.816 782.847 994.793 787.73C994.687 798.896 994.734 810.062 994.934 821.227C970.494 822.592 949.686 832.373 935.591 852.864C931.446 858.89 927.679 867.777 927.717 875.228C927.719 875.783 928.826 876.296 929.28 876.595C927.454 878.692 925.803 877.292 921.879 878.519C901.319 884.948 888.064 896.118 877.8 914.637C850.026 896.063 810.949 898.455 785.88 920.624C777.986 927.47 772.091 936.323 768.817 946.246C767.957 948.939 766.512 951.968 768.769 954.141C771.424 953.877 772.632 947.239 773.526 944.934C788.909 905.273 848.118 894.058 879.36 920.978C890.827 896.861 907.142 884.478 934.187 880.505C938.584 879.859 942.883 880.369 947.283 880.098C948.703 880.011 948.948 879.335 949.556 878.349L949.225 877.517C945.367 875.203 935.326 876.249 930.667 876.576C936.399 843.933 963.671 827.501 994.918 825.256L994.949 961.981L833.18 962.017C714.234 961.421 595.287 961.448 476.342 962.099C483.538 938.208 515.853 930.44 537.492 936.106C542.703 937.47 546.421 939.34 551.17 941.855C570.727 926.56 588.525 926.355 610.186 936.759C610.955 933.555 611.719 930.463 612.711 927.319C628.06 878.661 689.372 850.876 734.676 876.914C741.167 880.645 745.72 884.988 750.962 890.15C754.127 887.296 757.559 883.288 760.874 880.173C770.754 870.778 782.788 863.95 795.922 860.287C820.309 853.359 843.623 855.533 865.761 867.911C880.164 849.215 896.598 842.42 918.699 837.247C919.899 827.973 925.191 816.637 930.409 808.962C945.928 786.133 967.82 776.186 994.025 771.147Z"/><path fill="#EB9050" d="M425.705 199.705C428.381 199.302 431.921 199.461 434.693 199.479C429.224 200.64 422.984 201.47 417.347 202.529C399.508 205.995 381.623 209.216 363.695 212.19L276.535 227.316C217.353 237.578 158.038 247.048 98.6033 255.724C78.4403 258.655 56.8045 262.486 36.7478 264.827C38.6378 262.406 40.7641 259.969 42.7574 257.611C61.2553 239.9 82.3046 232.962 107.599 237.701C120.082 223.964 129.477 215.036 147.108 207.64C170.03 197.802 195.945 197.592 219.024 207.057C239.02 198.276 258.999 197.185 277.97 208.923C292.412 204.421 304.48 203.448 319.727 205.181C325.024 205.783 331.057 207.777 336.261 207.469C366.134 205.699 395.895 202.285 425.705 199.705Z"/><path fill="#364F3A" d="M923.008 764.841C932.162 764.142 943.509 761.848 951.918 761.42L952.291 762.667C953.474 762.095 956.796 761.476 958.007 762.07C958.07 763.407 958.196 762.774 957.37 763.935C955.744 764.06 955.558 763.998 954.302 765.043C947.541 766.459 939.254 767.104 932.188 768.419C896.428 775.072 860.132 779.838 824.093 784.931C785.188 790.74 746.37 797.122 707.653 804.077C662.408 812.388 617.347 821.669 572.501 831.915C506.414 846.516 440.585 862.26 375.043 879.14C314.312 894.727 253.773 911.056 193.441 928.121C165.891 935.833 138.405 943.768 110.984 951.926C103.286 954.203 95.6104 956.557 87.9594 958.988C85.0519 959.909 74.9552 963.223 72.3797 963.552C65.622 964.417 55.3302 963.969 48.2803 963.884C55.2899 960.783 64.4885 958.099 71.8894 955.765C84.7686 951.7 97.6854 947.755 110.638 943.93C154.709 930.884 198.942 918.392 243.327 906.457C339.328 879.812 435.937 855.406 533.074 833.259C573.386 823.694 613.852 814.791 654.456 806.555C719.022 794.392 783.89 783.885 848.995 775.045C873.457 771.677 898.646 767.521 923.008 764.841Z"/><path fill="#EB9050" d="M510.611 88.7006C526.406 87.9684 537.25 95.3201 547.033 106.749C561.757 96.923 578.896 98.2303 592.308 109.601C602.224 107.238 621.655 105.094 632.176 103.587C643.03 102.032 662.853 98.8732 673 98.7438C668.134 103.196 512.17 127.524 493.513 130.632L413.172 144.71C390.065 148.938 362.517 154.389 339.301 156.245C342.639 154.76 353.04 152.632 357.159 151.707C372.473 148.175 387.873 145.026 403.344 142.262C407.636 135.962 413.057 130.054 419.517 125.943C431.212 118.489 445.402 116.022 458.926 119.091C460.663 116.478 462.579 113.99 464.661 111.643C477.183 97.3629 491.78 90.0396 510.611 88.7006Z"/><path fill="#EB9050" d="M698.244 135.175C710.075 133.939 719.148 137.025 728.747 143.56C743.272 140.981 758.004 139.478 772.53 136.898C776.219 136.242 781.436 135.253 785.007 136.578L785.147 137.265C781.408 139.974 757.086 144.05 751.509 145.108L696.531 155.129C645.843 164.9 595.03 174.01 544.104 182.456C538.11 183.802 468.822 195.433 467.22 195.1L467.619 194.35C470.392 192.543 497.284 187.518 503.077 186.309C534.243 179.858 565.485 173.78 596.796 168.073C605.422 158.924 612.908 152.288 625.277 148.606C641.082 143.902 652.138 143.878 666.6 151.208C676.584 141.254 684.17 137.138 698.244 135.175Z"/></svg>