<?xml version="1.0" encoding="utf-8" ?>
<svg xmlns="http://www.w3.org/2000/svg" 
     width="100%" 
     height="100%" 
     viewBox="310 250 400 400"
     preserveAspectRatio="xMidYMid meet">
    <path fill="#FF7A30" d="M377.91 442.04C388.964 427.61 432.813 369.731 447.164 367.917C450.378 367.51 453.792 368.289 456.86 367.107C457.647 366.097 457.584 365.018 457.721 363.702C457.98 363.391 458.24 363.081 458.499 362.771C480.637 358.477 504.611 356.133 522.682 341.226C524.744 339.834 529.683 333.331 525.775 331.696C520.024 329.29 511.844 331.657 505.857 332.872C497.161 334.636 488.761 336.957 479.726 336.748C473.765 336.61 466.885 334.993 464.611 328.591C463.126 324.408 472.699 322.65 475.231 321.878C485.657 319.619 496.013 317.198 506.61 315.809C518.762 314.216 534.481 310.791 545.691 317.192C556.506 323.368 552.266 336.687 546.377 344.599C528.63 369.158 498.966 380.594 470.139 385.839C466.846 386.438 464.773 386.634 461.511 386.418C459.055 384.624 461.404 383.31 456.465 384.189C454.553 384.53 451.854 384.87 449.857 385.176C442.693 405.364 434.837 425.3 428.114 445.609C426.246 451.253 421.88 463.004 420.988 468.537C422.182 472.71 423.841 476.403 427.9 478.571C434.639 482.172 470.459 480.466 479.795 479.973C489.794 463.309 483.901 440.735 498.69 431.237C513.284 425.527 524.192 425.441 539.588 425.626C568.636 428.365 586.496 433.564 594.694 464.145C596.761 471.856 597.837 480.703 603.028 486.753C608.294 493.29 625.954 493.271 629.027 496.376C626.569 498.236 596.773 497.285 590.925 497.215C576.549 497.067 562.172 497.041 547.796 497.135C500.892 497.425 453.064 498.424 406.229 496.817L402.25 483.521L349.938 483.362C338.893 483.279 327.031 482.841 316.04 483.072C325.17 450.975 348.08 444.722 377.91 442.04Z"/>
    <path fill="#FF7A30" d="M608.193 333.248C628.742 333.155 649.291 333.205 669.84 333.399C675.399 333.423 703.66 332.629 705.99 334.629C703.087 337.999 693.627 335.479 689.806 341.632C686.641 346.726 687.612 350.647 687.384 356.179C686.485 377.92 691.927 397.045 675.737 414.059C661.082 428.296 644.632 425.251 626.04 425.555C615.181 425.733 603.809 425.102 593.011 425.826C593.123 396.135 593.967 362.873 592.935 333.475L608.193 333.248Z"/>
    <path fill="#FF7A30" d="M559.652 326.546C560.67 326.939 561.678 327.354 562.676 327.793C572.198 332.066 583.796 342.343 587.529 352.464C590.497 360.347 590.083 369.105 586.384 376.672C576.758 396.758 544.913 403.954 525.202 411.06C515.999 414.293 502.202 419.904 496.305 427.863C484.778 438.694 475.729 457.859 471.515 472.984C462.891 473.148 454.265 473.151 445.64 472.992C447.106 464.891 450.869 455.426 454.208 448.027C467.314 418.981 487.784 402.15 516.303 388.949C523.976 385.397 537.325 380.231 543.09 374.581C546.372 371.364 545.631 365.349 545.404 360.951C554.874 348.92 558.452 341.853 559.652 326.546Z"/>
    <path fill="#FF7A30" d="M465.284 260.21C496.342 259.621 504.387 278.838 495.792 307.164C494.096 312.752 472.576 316.878 466.79 318.542C458.585 321.169 451.92 323.344 443.225 323.931C436.637 310.944 432.532 282.535 442.452 270.458C448.323 263.31 456.484 261.133 465.284 260.21ZM439.687 290.962C440.915 298.923 442.128 309.109 444.856 316.476C455.478 311.457 469.558 300.188 478.204 292.129C478.086 289.537 478.192 286.426 477.105 284.176C475.56 283.05 476.081 283.401 473.593 283.648C462.642 285.527 450.625 288.485 439.687 290.962Z"/>
    <path fill="#FF7A30" d="M608.529 301.737L667.512 301.777C675.842 301.777 693.203 301.363 700.975 302.387C697.077 304.434 692.113 305.688 687.836 307.012C688.782 313.665 689.071 318.31 689.369 324.993L681.729 324.917L589.046 325.003C589.27 308.223 589.932 302.202 608.529 301.737Z"/>
    <path fill="#FF7A30" d="M393.096 489.384C400.524 491.155 399.184 497.514 399.39 503.951C403.754 503.602 406.172 503.604 410.463 504.199C404.868 543.113 356.64 545.376 335.132 515.738C328.735 506.828 327.418 500.368 326.123 489.891C332.16 489.892 338.198 489.845 344.234 489.751C344.507 495.236 344.726 498.506 347.47 503.474C356.651 520.088 382.095 524.679 391.175 505.401C393.37 500.743 391.61 494.253 393.096 489.384Z"/>
    <path fill="#FF7A30" d="M567.765 504.003L586.731 504.02C585.574 509.678 584.526 512.749 581.959 517.908C571.499 537.39 547.709 539.805 529.105 531.072C517.073 525.424 509.153 516.513 504.631 504.017L523.367 504.008C536 521.147 556.6 524.787 567.765 504.003Z"/>
    <path fill="#FF7A30" d="M619.711 435.565C626.057 435.567 634.418 436.061 640.396 435.499C635.245 446.656 628.25 452.859 617.656 458.492C613.866 460.23 609.266 461.564 605.252 462.853C603.716 456.882 600.952 451.641 599.031 445.72C608.55 442.696 611.56 441.268 619.711 435.565Z"/>
    <path fill="#FF7A30" d="M530.849 415.782C544.437 412.988 557.124 407.469 570.35 403.763C582.11 400.468 578.948 419.991 577.569 425.776C556.915 420.781 545.279 417.852 523.349 418.57C525.149 417.577 528.773 416.479 530.849 415.782Z"/>
    

    <!-- DRIVER text -->
    <text x="510" y="650"
          text-anchor="middle"
          font-size="85"
          font-weight="700"
          font-family="Gill Sans, Helvetica, sans-serif"
          fill="#FF7A30">
        DRIVER
    </text>
</svg>
